<svg clip-rule="evenodd" fill-rule="evenodd" stroke-linejoin="round" stroke-miterlimit="1.41421" viewBox="0 0 560 400" xmlns="http://www.w3.org/2000/svg" xmlns:xlink="http://www.w3.org/1999/xlink"><clipPath id="a"><path clip-rule="evenodd" d="m0 0h560v400h-560z"/></clipPath><path d="m0 0h560v400h-560z" fill="none"/><g clip-path="url(#a)"><path d="m70.764 143.26h-20.764v72.269h20.494c11.059 0 18.877-2.429 25.889-8.36 8.09-6.74 13.212-16.989 13.212-27.776 0-21.3-15.911-36.133-38.831-36.133zm16.45 54.471c-4.583 3.777-10.25 5.664-19.416 5.664h-3.774v-47.731h3.774c9.166 0 14.561 1.618 19.416 5.662 4.853 4.313 7.821 11.058 7.821 18.067-.003 7.012-2.968 14.024-7.821 18.338zm28.854 17.801h14.021v-72.272h-14.021zm48.537-44.496c-8.63-3.235-11.056-5.122-11.056-9.169 0-4.583 4.583-7.818 10.517-7.818 4.313 0 7.82 1.618 11.325 5.662l7.551-9.436c-6.203-5.394-13.482-8.09-21.303-8.09-12.943 0-22.651 8.899-22.651 20.763 0 9.978 4.583 14.833 17.799 19.686 5.664 1.887 8.36 3.235 9.708 4.044 2.965 1.889 4.313 4.583 4.313 7.551 0 5.933-4.583 10.247-11.056 10.247s-12.134-3.505-15.372-9.708l-8.896 8.899c6.473 9.436 14.291 13.752 25.077 13.752 14.56 0 24.81-9.708 24.81-23.73-.003-11.597-4.855-16.722-20.766-22.653zm25.08 8.357c0 21.303 16.719 37.753 38.289 37.753 5.934 0 11.326-1.08 17.529-4.046v-16.72c-5.664 5.662-10.517 8.09-16.99 8.09-14.021 0-24.268-10.516-24.268-25.079 0-13.752 10.517-24.808 23.729-24.808 6.743 0 11.865 2.426 17.529 8.09v-16.45c-5.934-3.237-11.056-4.583-17.259-4.583-21.303.003-38.559 16.992-38.559 37.753z"/><path d="m289.459 141.643c-21.305 0-38.564 16.72-38.564 37.211 0 22.114 16.45 38.292 38.564 38.292 21.567 0 38.56-16.45 38.56-37.753.002-21.03-16.72-37.75-38.56-37.75z" fill="#db8135"/><path d="m359.838 191.8-19.146-48.54h-15.642l30.744 74.156h7.551l31.281-74.156h-15.372zm41.261 23.732h39.909v-12.137h-25.888v-19.416h24.807v-12.404h-24.807v-15.911h25.888v-12.404h-39.909zm95.728-50.969c0-13.482-9.172-21.303-25.617-21.303h-20.766v72.269h14.021v-28.854h1.888l19.415 28.854h17.259l-22.651-30.474c10.514-2.154 16.451-9.436 16.451-20.492zm-28.318 12.137h-4.044v-22.112h4.314c8.899 0 13.479 3.775 13.479 10.787.003 7.279-4.577 11.325-13.749 11.325zm-415.297 60.051v6.475h7.996v2.62h-7.996v11.281h-2.874v-22.999h11.131v2.623zm21.384-2.623h2.876v22.999h-2.876zm16.761-1.104 17.249 18.099v-16.995h2.874v23.947l-17.267-18.089v17.141h-2.856zm46.713 15.72h-8.193l4.094-9.313zm1.178 2.622 2.622 5.761h3.094l-10.99-23.975-10.986 23.975h3.081l2.631-5.761zm17.219-18.342 17.267 18.099v-16.995h2.877v23.947l-17.288-18.089v17.141h-2.856zm50.819 5.501c-1.635-1.471-3.902-2.259-6.072-2.259-5.143 0-9.08 4.301-9.08 9.397 0 5.033 3.898 9.331 9.028 9.331 2.261 0 4.418-.848 6.122-2.379v3.392c-1.841 1.043-3.92 1.597-6.036 1.609-6.572 0-11.995-5.213-11.995-11.867 0-6.805 5.46-12.118 12.246-12.118 2.018 0 4.057.497 5.782 1.562v3.332zm13.2-4.397h2.858v22.999h-2.858zm29.652 14.616h-8.19l4.115-9.313zm1.181 2.622 2.63 5.761h3.081l-10.967-23.975-10.99 23.975h3.072l2.623-5.761zm20.358 3.151h6.991v2.61h-9.849v-22.999h2.858zm47.628-16.023c-.832-1.442-1.937-2.173-3.69-2.173-1.835 0-3.856 1.249-3.856 3.27 0 1.792 1.796 2.745 3.22 3.292l1.636.647c3.277 1.274 5.716 3.08 5.716 6.92 0 4.185-3.24 7.166-7.352 7.166-3.727 0-6.625-2.74-7.101-6.433l2.892-.605c-.037 2.526 1.979 4.358 4.436 4.358 2.479 0 4.243-2.067 4.243-4.486 0-2.465-1.979-3.539-3.957-4.368l-1.581-.663c-2.633-1.13-5.01-2.622-5.01-5.828 0-3.728 3.293-5.96 6.779-5.96 2.552 0 4.662 1.259 5.905 3.481zm16.011-4.366h12.364v2.623h-9.488v6.446h9.229v2.62h-9.229v8.7h9.488v2.61h-12.364zm28.647 2.562h.736c2.863 0 6.271.519 6.271 4.125 0 3.657-3.191 4.201-6.114 4.201h-.896v-8.326zm4.172 10.439c3.324-.403 5.52-3.141 5.52-6.442 0-2.193-1.104-4.366-3.031-5.496-1.824-1.034-4.023-1.063-6.056-1.063h-3.476v22.999h2.874v-9.718h1.18l6.774 9.718h3.471zm26.962 4.023 6.834-17.024h3.149l-9.983 24.232-10.001-24.232h3.143zm21.695-17.024h2.872v22.999h-2.872zm33.801 4.397c-1.657-1.471-3.926-2.259-6.104-2.259-5.137 0-9.074 4.301-9.074 9.397 0 5.033 3.895 9.331 9.022 9.331 2.264 0 4.442-.848 6.156-2.379v3.392c-1.847 1.041-3.93 1.595-6.051 1.609-6.554 0-12.003-5.213-12.003-11.867 0-6.805 5.486-12.118 12.244-12.118 2.018 0 4.059.497 5.813 1.562v3.332zm13.249-4.397h12.362v2.623h-9.482v6.446h9.21v2.62h-9.21v8.7h9.482v2.61h-12.362zm35.969 4.366c-.838-1.442-1.937-2.173-3.675-2.173-1.825 0-3.845 1.249-3.845 3.27 0 1.792 1.78 2.745 3.201 3.292l1.662.647c3.251 1.274 5.69 3.08 5.69 6.92 0 4.185-3.235 7.166-7.352 7.166-3.712 0-6.63-2.74-7.096-6.433l2.884-.605c-.036 2.526 1.995 4.358 4.458 4.358 2.473 0 4.248-2.067 4.248-4.486 0-2.465-2-3.539-3.973-4.368l-1.584-.663c-2.633-1.13-5.009-2.622-5.009-5.828 0-3.728 3.297-5.96 6.779-5.96 2.551 0 4.666 1.259 5.925 3.481zm5.255-88.824c0 .555-.379.848-1.149.848h-.262v-1.656h.281c.764.002 1.13.264 1.13.808zm2.256 4.379-2.096-2.633c.895-.23 1.411-.885 1.411-1.785 0-1.246-.875-1.95-2.429-1.95h-2.029v6.368h1.503v-2.465l1.785 2.465zm2.678-3.196c0-3.041-2.473-5.548-5.476-5.548-.012-.001-.024-.001-.036-.001-3.031 0-5.526 2.495-5.526 5.526v.023c0 3.092 2.484 5.557 5.562 5.557 3.003-.003 5.476-2.507 5.476-5.557zm-1.12.016c0 2.497-1.963 4.544-4.382 4.544-2.434 0-4.436-2.036-4.436-4.544 0-2.536 1.984-4.552 4.436-4.552 2.419 0 4.382 2.047 4.382 4.552z"/></g></svg>