<?xml version="1.0" standalone="no"?>
<!DOCTYPE svg PUBLIC "-//W3C//DTD SVG 20010904//EN"
 "http://www.w3.org/TR/2001/REC-SVG-20010904/DTD/svg10.dtd">
<svg version="1.0" xmlns="http://www.w3.org/2000/svg"
 width="3490.000000pt" height="2374.000000pt" viewBox="0 0 3490.000000 2374.000000"
 preserveAspectRatio="xMidYMid meet">
<metadata>
Created by potrace 1.16, written by Peter Selinger 2001-2019
</metadata>
<g transform="translate(0.000000,2374.000000) scale(0.100000,-0.100000)"
fill="#000000" stroke="none">
<path d="M0 11870 l0 -11870 17450 0 17450 0 0 11870 0 11870 -17450 0 -17450
0 0 -11870z m18615 9700 c1065 -46 1724 -98 2603 -205 2084 -256 4034 -730
5647 -1374 708 -284 1389 -616 1916 -937 52 -31 100 -57 107 -57 6 0 10 -2 7
-5 -2 -3 59 -44 136 -93 731 -461 1403 -1065 1804 -1624 291 -405 490 -830
585 -1254 50 -221 64 -351 64 -606 0 -245 -10 -353 -51 -555 -102 -505 -362
-1033 -737 -1500 -164 -204 -504 -553 -720 -739 -816 -701 -1845 -1290 -3171
-1816 -2136 -846 -4844 -1386 -7695 -1534 -951 -50 -2309 -50 -3260 0 -1070
55 -2160 170 -3168 334 -118 19 -228 37 -245 39 -118 17 -624 114 -992 192
-1508 318 -2915 770 -4080 1309 -1201 556 -2164 1208 -2816 1908 -248 265
-419 484 -566 721 -243 393 -398 795 -464 1201 -27 164 -37 561 -19 717 42
368 133 678 300 1023 370 763 1115 1526 2117 2169 654 418 1341 768 2160 1097
2154 865 4884 1417 7728 1564 309 15 779 34 1010 39 275 6 1564 -4 1800 -14z
m-12565 -16002 c0 -1801 4 -2032 35 -2209 47 -273 165 -507 313 -625 168 -133
372 -198 662 -211 488 -21 850 129 998 413 91 176 143 390 162 671 6 91 10
853 10 1961 l0 1812 580 0 581 0 -4 -2012 c-3 -1790 -5 -2025 -19 -2123 -76
-512 -235 -873 -516 -1166 -194 -203 -367 -318 -650 -433 -296 -121 -640 -179
-1057 -179 -1039 -1 -1747 393 -2069 1148 -60 141 -120 350 -145 510 -40 251
-41 277 -41 2303 l0 1952 580 0 580 0 0 -1812z m9269 1504 c58 -163 107 -299
110 -302 3 -3 7 -12 7 -20 1 -8 166 -481 367 -1050 201 -569 512 -1451 691
-1960 179 -509 419 -1190 534 -1515 l208 -590 -601 -3 c-330 -1 -605 0 -610 2
-6 2 -93 265 -195 585 l-185 581 -1092 0 -1092 0 -16 -52 c-8 -29 -89 -291
-178 -583 l-163 -530 -618 -3 c-493 -2 -617 0 -614 10 175 480 1557 4462 1552
4470 -4 6 -3 9 2 5 5 -3 108 278 229 624 l220 629 670 0 670 0 104 -298z
m8271 -217 l0 -515 -830 0 -830 0 0 -2355 0 -2355 -580 0 -580 0 0 2355 0
2355 -835 0 -835 0 0 515 0 515 2245 0 2245 0 0 -515z m5625 491 c266 -44 468
-110 650 -216 118 -67 181 -116 295 -230 233 -233 374 -538 440 -954 35 -221
30 -648 -11 -896 -118 -725 -529 -1181 -1198 -1330 -210 -47 -287 -50 -1123
-50 l-788 0 0 -1020 0 -1020 -580 0 -580 0 0 2871 0 2870 1393 -4 c1280 -3
1401 -5 1502 -21z"/>
<path d="M17530 18743 c-289 -91 -527 -167 -529 -169 -4 -3 45 -77 525 -806
l223 -337 -189 -83 c-104 -45 -188 -83 -187 -84 1 -1 75 -51 165 -112 118 -80
158 -112 145 -116 -10 -3 -684 -122 -1498 -265 -814 -143 -2324 -409 -3355
-591 -1031 -182 -1888 -332 -1905 -333 -24 -2 -495 267 -2196 1251 l-2167
1253 -488 -96 c-269 -53 -507 -99 -529 -104 -27 -5 -39 -12 -37 -22 3 -12 273
-467 1633 -2749 l188 -315 -97 -6 c-201 -13 -392 -112 -537 -278 l-30 -34 -5
-270 -5 -270 -969 -298 c-533 -164 -974 -301 -980 -303 -6 -3 57 -2 139 1
l150 6 1180 299 1180 300 2880 -41 c4078 -59 4706 -69 4710 -73 2 -2 -208 -65
-468 -141 -260 -75 -1731 -502 -3270 -949 l-2799 -813 539 -3 538 -2 160 29
c88 17 813 152 1610 302 l1450 271 150 -6 c191 -8 386 -30 495 -57 295 -73
314 -216 56 -410 -47 -35 -85 -66 -86 -69 0 -3 170 -22 378 -43 207 -21 564
-59 792 -84 596 -67 745 -64 973 13 159 54 314 180 375 305 81 168 53 338 -78
469 -69 69 -153 118 -280 162 l-95 33 -397 3 -398 3 0 23 c0 35 73 111 150
156 140 82 409 177 835 295 581 161 787 220 892 256 l113 39 694 0 694 0 16
-65 c42 -166 -2 -250 -155 -296 l-71 -22 54 -29 c29 -16 123 -65 209 -109
l156 -80 509 55 509 55 215 -27 c244 -31 314 -29 465 13 119 34 214 80 302
147 183 137 279 348 239 521 -22 95 -51 150 -111 211 -64 64 -164 117 -280
146 -68 17 -90 19 -155 10 -156 -20 -882 -101 -885 -98 -2 2 22 53 53 113 l57
110 555 97 c305 53 1037 180 1625 283 589 102 1688 294 2442 425 l1373 240
422 121 c1075 307 2050 623 2756 895 1069 411 1679 769 1828 1070 45 91 51
181 18 254 -60 131 -247 261 -517 361 -72 27 -89 29 -210 29 -383 0 -779 101
-1178 300 -164 83 -305 163 -420 240 l-86 58 -1549 -298 c-852 -164 -2332
-449 -3289 -635 l-1740 -337 -244 168 -244 167 -290 -83 -289 -83 -95 12
c-456 60 -964 302 -1455 693 -100 80 -370 320 -417 372 -14 14 -27 26 -30 25
-3 -1 -242 -75 -531 -166z"/>
<path d="M14162 5002 c-211 -662 -382 -1205 -380 -1208 3 -2 349 -3 769 -2
l765 3 -152 475 c-84 261 -257 804 -386 1205 l-233 731 -383 -1204z"/>
<path d="M27480 5535 l0 -826 678 4 c656 3 680 4 759 25 404 107 559 352 540
856 -8 213 -46 350 -134 484 -82 122 -200 198 -393 250 l-95 26 -677 4 -678 4
0 -827z"/>
</g>
</svg>
